<?xml version="1.0" encoding="UTF-8" standalone="no"?>
<!-- Created with Serif DrawPlus 11, 0, 3, 23 (Feb 25, 14:12:55) (http://www.serif.com) -->
<svg version="1.1" xmlns="http://www.w3.org/2000/svg" xmlns:xlink="http://www.w3.org/1999/xlink" width="325.577" height="201.215">
	<g id="dp_group001" transform="matrix(1,0,0,1,-437.28,-595.367)">
		<g id="dp_group002">
			<g id="dp_group003">
				<path id="dp_path004" fill="#069a35" fill-rule="evenodd" d="M 446.252,696.124 L 445.177,694.437 L 443.029,691.063 L 437.28,700.652 L 448.401,699.497 Z "/>
				<path id="dp_path005" fill="#069a35" d="M 557.116,623.149 L 553.067,625.728 L 554.141,627.416 L 558.191,624.837 Z M 549.017,628.307 L 544.968,630.885 L 546.043,632.573 L 550.092,629.995 Z M 540.919,633.464 L 536.869,636.043 L 537.944,637.731 L 541.993,635.152 Z M 532.82,638.621 L 528.771,641.2 L 529.845,642.888 L 533.895,640.309 Z M 524.721,643.779 L 520.672,646.357 L 521.747,648.045 L 525.796,645.467 Z M 516.623,648.936 L 512.575,651.515 L 513.649,653.203 L 517.697,650.624 Z M 508.525,654.093 L 504.476,656.672 L 505.551,658.36 L 509.6,655.781 Z M 500.427,659.251 L 496.377,661.829 L 497.452,663.517 L 501.501,660.939 Z M 492.328,664.408 L 488.279,666.987 L 489.353,668.675 L 493.403,666.096 Z M 484.231,669.565 L 480.181,672.144 L 481.256,673.832 L 485.305,671.253 Z M 476.133,674.723 L 472.084,677.301 L 473.159,678.989 L 477.208,676.411 Z M 468.035,679.88 L 463.985,682.459 L 465.06,684.147 L 469.109,681.568 Z M 459.936,685.037 L 455.887,687.616 L 456.961,689.304 L 461.011,686.725 Z M 451.837,690.195 L 447.789,692.773 L 448.864,694.461 L 452.912,691.883 Z "/>
			</g>
		</g>
		<g id="dp_group006">
			<g id="dp_group007">
				<path id="dp_path008" fill="#0916ca" fill-rule="evenodd" d="M 681.047,661.855 L 681.067,661.795 L 681.087,661.736 L 681.111,661.677 L 681.135,661.62 L 681.161,661.563 L 681.189,661.507 L 681.22,661.452 L 681.252,661.396 L 681.285,661.343 L 681.32,661.289 L 681.357,661.237 L 681.396,661.185 L 681.436,661.135 L 681.477,661.085 L 681.52,661.036 L 681.565,660.989 L 681.611,660.941 L 681.659,660.896 L 681.707,660.851 L 681.757,660.808 L 681.809,660.765 L 681.863,660.723 L 681.917,660.683 L 681.972,660.643 L 682.029,660.605 L 682.088,660.568 L 682.148,660.532 L 682.208,660.497 L 682.271,660.464 L 682.333,660.433 L 682.397,660.403 L 682.464,660.373 L 682.531,660.345 L 682.597,660.319 L 682.667,660.293 L 682.736,660.269 L 682.807,660.247 L 682.879,660.227 L 682.952,660.207 L 683.025,660.189 L 683.1,660.173 L 683.176,660.159 L 683.252,660.145 L 683.329,660.135 L 683.408,660.125 L 683.487,660.116 L 683.567,660.111 L 683.647,660.107 L 683.728,660.103 L 683.811,660.103 L 683.893,660.103 L 683.976,660.105 L 684.06,660.111 L 684.144,660.116 L 684.229,660.125 L 684.316,660.136 L 684.401,660.148 L 684.488,660.161 L 684.576,660.179 L 684.664,660.196 L 684.752,660.217 L 684.84,660.239 L 684.929,660.264 L 685.019,660.291 L 685.107,660.319 L 685.195,660.348 L 685.28,660.38 L 685.364,660.413 L 685.448,660.448 L 685.528,660.484 L 685.608,660.521 L 685.687,660.56 L 685.763,660.601 L 685.837,660.643 L 685.911,660.685 L 685.981,660.731 L 686.052,660.776 L 686.12,660.823 L 686.187,660.872 L 686.252,660.923 L 686.315,660.973 L 686.376,661.025 L 686.436,661.079 L 686.495,661.133 L 686.551,661.189 L 686.605,661.247 L 686.659,661.305 L 686.711,661.365 L 686.76,661.425 L 686.808,661.487 L 686.853,661.549 L 686.897,661.613 L 686.94,661.679 L 686.981,661.744 L 687.02,661.811 L 687.057,661.88 L 687.092,661.948 L 687.125,662.017 L 687.157,662.088 L 687.187,662.16 L 687.215,662.232 L 687.24,662.307 L 687.264,662.38 L 687.287,662.455 L 687.307,662.531 L 687.324,662.608 L 687.341,662.685 L 687.356,662.764 L 687.368,662.843 L 687.379,662.923 L 687.387,663.003 L 687.393,663.084 L 687.397,663.165 L 687.4,663.248 L 687.4,663.331 L 687.399,663.415 L 687.396,663.499 L 687.389,663.584 L 687.383,663.669 L 687.373,663.755 L 687.361,663.841 L 687.347,663.928 L 687.331,664.016 L 687.313,664.104 L 687.293,664.192 L 687.271,664.28 L 687.245,664.369 L 687.22,664.459 L 687.191,664.548 L 687.161,664.635 L 687.129,664.721 L 687.096,664.805 L 687.061,664.888 L 687.025,664.968 L 686.988,665.048 L 686.949,665.127 L 686.908,665.203 L 686.867,665.277 L 686.824,665.351 L 686.779,665.421 L 686.733,665.492 L 686.685,665.56 L 686.637,665.627 L 686.588,665.692 L 686.536,665.755 L 686.484,665.817 L 686.431,665.876 L 686.376,665.935 L 686.32,665.991 L 686.263,666.045 L 686.204,666.099 L 686.144,666.151 L 686.084,666.2 L 686.023,666.248 L 685.96,666.293 L 685.896,666.337 L 685.831,666.38 L 685.765,666.421 L 685.697,666.46 L 685.631,666.497 L 685.561,666.532 L 685.492,666.565 L 685.42,666.597 L 685.349,666.627 L 685.276,666.655 L 685.203,666.68 L 685.129,666.704 L 685.053,666.727 L 684.977,666.747 L 684.901,666.764 L 684.823,666.781 L 684.745,666.796 L 684.667,666.808 L 684.587,666.819 L 684.505,666.827 L 684.425,666.833 L 684.344,666.837 L 684.261,666.84 L 684.177,666.841 L 684.095,666.839 L 684.009,666.836 L 683.925,666.831 L 683.84,666.823 L 683.755,666.813 L 683.668,666.801 L 683.581,666.787 L 683.493,666.771 L 683.405,666.753 L 683.317,666.733 L 683.229,666.711 L 683.14,666.687 L 683.051,666.66 L 682.961,666.631 L 682.875,666.601 L 682.789,666.569 L 682.704,666.537 L 682.621,666.503 L 682.54,666.467 L 682.46,666.429 L 682.383,666.391 L 682.307,666.351 L 682.231,666.309 L 682.157,666.267 L 682.085,666.224 L 682.016,666.179 L 681.947,666.133 L 681.88,666.085 L 681.815,666.037 L 681.751,665.988 L 681.688,665.939 L 681.628,665.887 L 681.568,665.835 L 681.511,665.783 L 681.455,665.729 L 681.401,665.673 L 681.348,665.619 L 681.297,665.563 L 681.248,665.505 L 681.2,665.448 L 681.155,665.389 L 681.111,665.331 L 681.068,665.271 L 681.027,665.211 L 680.988,665.151 L 680.949,665.089 L 680.913,665.027 L 680.88,664.965 L 680.847,664.903 L 680.816,664.84 L 680.788,664.776 L 680.76,664.713 L 680.735,664.649 L 680.711,664.585 L 680.689,664.521 L 680.668,664.456 L 680.649,664.392 L 680.633,664.328 L 680.617,664.264 L 680.604,664.199 L 680.593,664.135 L 680.583,664.069 L 680.575,664.005 L 680.569,663.94 L 680.564,663.876 L 680.561,663.812 L 680.561,663.748 L 680.561,663.684 L 680.564,663.621 L 680.569,663.559 L 680.576,663.495 L 680.584,663.433 L 680.593,663.371 L 680.605,663.309 L 680.62,663.248 L 680.636,663.188 L 680.653,663.128 Z "/>
				<path id="dp_path009" fill="#0916ca" fill-rule="evenodd" d="M 562.416,626.595 L 562.811,625.321 L 563.597,622.773 L 556.244,623.989 L 561.629,629.143 Z "/>
				<path id="dp_path010" fill="#0916ca" d="M 681.047,661.857 L 562.811,625.32 L 562.416,626.595 L 680.652,663.132 Z "/>
			</g>
		</g>
		<g id="dp_group011">
			<g id="dp_group012">
				<path id="dp_path013" fill="black" fill-rule="evenodd" d="M 611.625,627.684 L 613.268,625.584 L 616.552,621.383 L 601.943,618.421 L 608.34,631.887 Z "/>
				<path id="dp_path014" fill="black" d="M 653.283,656.863 L 613.268,625.583 L 611.625,627.684 L 651.64,658.964 Z "/>
			</g>
		</g>
		<g id="dp_group015">
			<text id="dp_text001" transform="matrix(1,0,0,1,683.645,610.607)" xml:space="preserve" fill="black" font-family="Arial" font-size="15" font-weight="700" x="0" y="0">e </text>
			<text id="dp_text002" transform="matrix(1,0,0,1,691.628,613.905)" xml:space="preserve" fill="black" font-family="Arial" font-size="11" font-weight="400" font-style="italic" x="0" y="0">r </text>
		</g>
		<text id="dp_text003" transform="matrix(1,0,0,1,518.993,634.24)" xml:space="preserve" fill="#0916ca" font-family="Arial" font-size="15" font-weight="400" font-style="italic" x="0" y="0">d</text>
		<text id="dp_text004" transform="matrix(1,0,0,1,518.993,634.24)" xml:space="preserve" fill="#0916ca" font-family="Arial" font-size="15" font-weight="700" x="8.46" y="0">v</text>
		<text id="dp_text005" transform="matrix(1,0,0,1,518.993,634.24)" xml:space="preserve" fill="#0916ca" font-family="Arial" font-size="15" font-weight="700" x="16.92" y="0"> </text>
		<g id="dp_group021">
			<text id="dp_text006" transform="matrix(1,0,0,1,586.813,619.552)" xml:space="preserve" fill="black" font-family="Arial" font-size="15" font-weight="700" x="0" y="0">e </text>
			<path id="dp_path023" fill="black" fill-rule="evenodd" d="M 595.871,623.033 C 596.193,623.027 596.517,622.917 596.843,622.705 C 597.159,622.503 597.459,622.231 597.745,621.888 C 598.328,621.173 598.781,620.352 599.103,619.424 C 599.259,618.967 599.369,618.523 599.435,618.093 C 599.491,617.664 599.489,617.276 599.429,616.932 C 599.376,616.588 599.261,616.313 599.085,616.107 C 598.9,615.904 598.649,615.803 598.328,615.803 C 598.015,615.803 597.7,615.904 597.384,616.107 C 597.068,616.313 596.763,616.588 596.469,616.932 C 595.869,617.659 595.409,618.489 595.092,619.424 C 594.777,620.352 594.675,621.173 594.785,621.888 C 594.845,622.231 594.964,622.503 595.143,622.705 C 595.317,622.917 595.56,623.027 595.871,623.033 Z M 598.08,619.435 L 597.865,620.067 C 597.588,620.884 597.291,621.535 596.977,622.017 C 596.647,622.52 596.307,622.773 595.957,622.78 C 595.625,622.773 595.467,622.52 595.48,622.017 C 595.477,621.535 595.615,620.884 595.892,620.067 L 596.108,619.435 Z M 596.245,619.032 L 596.504,618.267 C 596.703,617.681 596.955,617.173 597.257,616.743 C 597.412,616.533 597.573,616.364 597.74,616.237 C 597.904,616.116 598.072,616.056 598.243,616.056 C 598.427,616.056 598.559,616.116 598.641,616.237 C 598.721,616.364 598.768,616.533 598.78,616.743 C 598.777,617.173 598.676,617.681 598.477,618.267 L 598.217,619.032 Z "/>
		</g>
		<g id="dp_group024">
			<g id="dp_group025">
				<path id="dp_path026" fill="#0916ca" fill-rule="evenodd" d="M 513.305,710.343 L 512.395,709.369 L 510.572,707.423 L 507.981,714.412 L 515.127,712.291 Z "/>
				<path id="dp_path027" fill="#0916ca" d="M 762.908,707.203 L 762.647,706.867 L 762.367,706.516 L 762.068,706.161 L 761.756,705.8 L 761.425,705.433 L 761.081,705.061 L 760.723,704.683 L 760.347,704.297 L 759.957,703.909 L 759.552,703.513 L 759.132,703.113 L 758.697,702.707 L 758.247,702.297 L 757.784,701.881 L 757.305,701.461 L 756.815,701.036 L 756.308,700.607 L 755.789,700.173 L 755.256,699.733 L 754.709,699.292 L 754.149,698.845 L 753.576,698.393 L 752.992,697.941 L 752.393,697.483 L 751.781,697.02 L 751.159,696.556 L 750.523,696.089 L 749.875,695.617 L 749.215,695.143 L 748.541,694.668 L 747.86,694.188 L 747.165,693.707 L 746.459,693.221 L 745.741,692.736 L 745.013,692.248 L 744.275,691.757 L 743.525,691.265 L 742.765,690.772 L 741.995,690.276 L 741.215,689.78 L 740.424,689.283 L 739.623,688.783 L 738.813,688.284 L 737.993,687.784 L 737.165,687.283 L 736.327,686.781 L 735.481,686.28 L 734.625,685.777 L 733.761,685.275 L 732.888,684.775 L 732.007,684.271 L 731.117,683.771 L 730.22,683.269 L 729.315,682.769 L 728.404,682.271 L 727.484,681.772 L 726.556,681.275 L 725.621,680.78 L 724.68,680.285 L 723.732,679.792 L 722.776,679.301 L 721.815,678.812 L 720.847,678.325 L 719.875,677.84 L 718.893,677.357 L 717.908,676.877 L 716.916,676.401 L 715.921,675.927 L 714.92,675.453 L 713.911,674.985 L 712.9,674.519 L 711.883,674.057 L 710.861,673.597 L 709.835,673.143 L 708.805,672.691 L 707.771,672.243 L 706.733,671.8 L 705.691,671.36 L 704.644,670.925 L 703.595,670.495 L 702.543,670.071 L 701.488,669.649 L 700.428,669.233 L 699.368,668.823 L 698.304,668.416 L 697.237,668.016 L 696.168,667.621 L 695.097,667.232 L 694.024,666.849 L 692.951,666.472 L 691.873,666.1 L 690.795,665.735 L 689.717,665.377 L 688.637,665.027 L 687.556,664.681 L 686.473,664.343 L 685.391,664.011 L 684.308,663.687 L 683.224,663.371 L 682.141,663.061 L 681.059,662.759 L 679.975,662.465 L 678.893,662.18 L 677.809,661.901 L 676.728,661.632 L 675.647,661.371 L 674.568,661.117 L 673.489,660.872 L 672.412,660.639 L 671.337,660.411 L 670.263,660.193 L 669.191,659.985 L 668.121,659.787 L 667.053,659.597 L 665.988,659.417 L 664.924,659.247 L 663.865,659.088 L 662.807,658.937 L 661.753,658.8 L 660.701,658.669 L 659.653,658.551 L 658.609,658.444 L 657.568,658.347 L 656.532,658.261 L 655.499,658.187 L 654.469,658.123 L 653.445,658.072 L 652.427,658.032 L 651.443,658.001 L 650.456,657.975 L 649.463,657.953 L 648.467,657.936 L 647.465,657.923 L 646.459,657.915 L 645.449,657.909 L 644.437,657.912 L 643.419,657.919 L 642.396,657.929 L 641.368,657.945 L 640.339,657.967 L 639.304,657.993 L 638.264,658.024 L 637.223,658.061 L 636.175,658.103 L 635.124,658.151 L 634.071,658.204 L 633.013,658.263 L 631.952,658.327 L 630.885,658.397 L 629.817,658.473 L 628.745,658.555 L 627.669,658.643 L 626.591,658.736 L 625.508,658.837 L 624.424,658.943 L 623.335,659.055 L 622.243,659.173 L 621.147,659.297 L 620.049,659.429 L 618.948,659.568 L 617.845,659.712 L 616.737,659.861 L 615.628,660.02 L 614.515,660.184 L 613.4,660.356 L 612.281,660.535 L 611.161,660.719 L 610.039,660.912 L 608.912,661.111 L 607.784,661.319 L 606.653,661.532 L 605.52,661.753 L 604.385,661.983 L 603.248,662.219 L 602.108,662.464 L 600.967,662.715 L 599.823,662.973 L 598.676,663.241 L 597.528,663.517 L 596.38,663.799 L 595.228,664.091 L 594.075,664.389 L 592.92,664.697 L 591.763,665.011 L 590.603,665.335 L 589.443,665.667 L 588.281,666.008 L 587.117,666.357 L 585.953,666.715 L 584.788,667.081 L 583.62,667.456 L 582.452,667.84 L 581.283,668.232 L 580.112,668.633 L 578.94,669.044 L 577.767,669.463 L 576.591,669.892 L 575.416,670.331 L 574.24,670.777 L 573.064,671.235 L 571.887,671.7 L 570.708,672.175 L 569.528,672.661 L 568.349,673.156 L 567.169,673.66 L 565.989,674.175 L 564.808,674.699 L 563.627,675.233 L 562.445,675.776 L 561.263,676.332 L 560.081,676.895 L 558.897,677.471 L 557.716,678.055 L 556.532,678.649 L 555.349,679.255 L 554.167,679.871 L 552.985,680.499 L 551.803,681.135 L 550.62,681.783 L 549.437,682.443 L 548.256,683.111 L 547.076,683.792 L 545.893,684.483 L 544.713,685.187 L 543.533,685.9 L 542.355,686.624 L 541.176,687.36 L 539.997,688.108 L 538.82,688.867 L 537.644,689.637 L 536.468,690.419 L 535.293,691.213 L 534.12,692.019 L 532.948,692.835 L 531.776,693.664 L 530.605,694.505 L 529.436,695.359 L 528.268,696.224 L 527.103,697.1 L 525.937,697.989 L 524.772,698.891 L 523.609,699.804 L 522.448,700.731 L 521.289,701.669 L 520.132,702.62 L 518.976,703.585 L 517.821,704.561 L 516.669,705.551 L 515.517,706.553 L 514.368,707.568 L 513.219,708.599 L 512.393,709.369 L 513.305,710.343 L 514.117,709.58 L 515.253,708.563 L 516.395,707.553 L 517.539,706.559 L 518.685,705.575 L 519.832,704.604 L 520.98,703.647 L 522.132,702.701 L 523.283,701.768 L 524.436,700.849 L 525.591,699.941 L 526.748,699.045 L 527.905,698.161 L 529.065,697.291 L 530.225,696.431 L 531.387,695.585 L 532.549,694.749 L 533.713,693.925 L 534.877,693.115 L 536.043,692.315 L 537.209,691.525 L 538.377,690.749 L 539.545,689.984 L 540.715,689.231 L 541.885,688.488 L 543.056,687.757 L 544.227,687.036 L 545.399,686.328 L 546.571,685.629 L 547.743,684.944 L 548.917,684.268 L 550.091,683.603 L 551.263,682.948 L 552.437,682.305 L 553.612,681.672 L 554.785,681.049 L 555.96,680.439 L 557.135,679.836 L 558.308,679.247 L 559.484,678.665 L 560.657,678.095 L 561.831,677.535 L 563.005,676.984 L 564.179,676.444 L 565.352,675.915 L 566.525,675.393 L 567.697,674.884 L 568.869,674.383 L 570.04,673.891 L 571.209,673.409 L 572.38,672.937 L 573.549,672.475 L 574.717,672.02 L 575.885,671.576 L 577.052,671.143 L 578.217,670.716 L 579.383,670.3 L 580.547,669.892 L 581.709,669.493 L 582.871,669.104 L 584.031,668.723 L 585.191,668.351 L 586.348,667.987 L 587.504,667.632 L 588.66,667.285 L 589.813,666.947 L 590.965,666.617 L 592.115,666.296 L 593.264,665.983 L 594.411,665.677 L 595.556,665.381 L 596.7,665.092 L 597.843,664.811 L 598.983,664.537 L 600.119,664.272 L 601.255,664.016 L 602.391,663.765 L 603.523,663.523 L 604.652,663.287 L 605.779,663.06 L 606.904,662.841 L 608.027,662.628 L 609.147,662.423 L 610.265,662.224 L 611.38,662.033 L 612.495,661.849 L 613.605,661.671 L 614.712,661.501 L 615.817,661.337 L 616.919,661.181 L 618.019,661.032 L 619.116,660.888 L 620.209,660.752 L 621.301,660.62 L 622.389,660.496 L 623.473,660.38 L 624.555,660.268 L 625.633,660.163 L 626.708,660.064 L 627.781,659.971 L 628.849,659.883 L 629.913,659.801 L 630.976,659.725 L 632.035,659.657 L 633.088,659.593 L 634.14,659.535 L 635.188,659.481 L 636.231,659.433 L 637.271,659.392 L 638.307,659.355 L 639.339,659.324 L 640.368,659.297 L 641.392,659.276 L 642.412,659.26 L 643.429,659.249 L 644.44,659.243 L 645.449,659.243 L 646.453,659.245 L 647.452,659.253 L 648.448,659.267 L 649.439,659.284 L 650.424,659.305 L 651.405,659.332 L 652.381,659.363 L 653.387,659.403 L 654.397,659.453 L 655.411,659.515 L 656.431,659.589 L 657.453,659.675 L 658.481,659.769 L 659.512,659.876 L 660.547,659.992 L 661.585,660.12 L 662.628,660.257 L 663.673,660.405 L 664.721,660.564 L 665.772,660.732 L 666.827,660.909 L 667.884,661.096 L 668.943,661.295 L 670.004,661.5 L 671.068,661.715 L 672.135,661.94 L 673.201,662.173 L 674.269,662.416 L 675.34,662.667 L 676.411,662.925 L 677.484,663.192 L 678.557,663.468 L 679.631,663.753 L 680.707,664.044 L 681.781,664.344 L 682.856,664.651 L 683.932,664.964 L 685.007,665.285 L 686.081,665.615 L 687.156,665.951 L 688.229,666.293 L 689.301,666.644 L 690.373,666.999 L 691.444,667.361 L 692.513,667.731 L 693.581,668.105 L 694.647,668.485 L 695.712,668.872 L 696.773,669.264 L 697.832,669.661 L 698.891,670.065 L 699.945,670.473 L 700.997,670.887 L 702.047,671.305 L 703.093,671.729 L 704.137,672.157 L 705.176,672.589 L 706.213,673.027 L 707.245,673.467 L 708.275,673.912 L 709.299,674.361 L 710.32,674.813 L 711.336,675.271 L 712.345,675.729 L 713.353,676.193 L 714.355,676.659 L 715.351,677.129 L 716.343,677.601 L 717.329,678.077 L 718.309,678.555 L 719.283,679.035 L 720.252,679.517 L 721.215,680.001 L 722.171,680.488 L 723.121,680.976 L 724.064,681.467 L 725,681.959 L 725.929,682.451 L 726.852,682.945 L 727.767,683.441 L 728.675,683.937 L 729.575,684.435 L 730.467,684.933 L 731.351,685.431 L 732.227,685.929 L 733.095,686.429 L 733.953,686.927 L 734.804,687.427 L 735.647,687.925 L 736.48,688.424 L 737.303,688.923 L 738.117,689.42 L 738.921,689.916 L 739.717,690.411 L 740.503,690.905 L 741.277,691.399 L 742.043,691.889 L 742.797,692.38 L 743.541,692.869 L 744.275,693.355 L 744.997,693.84 L 745.709,694.323 L 746.408,694.803 L 747.097,695.281 L 747.776,695.756 L 748.441,696.228 L 749.093,696.697 L 749.736,697.164 L 750.367,697.628 L 750.984,698.087 L 751.588,698.541 L 752.179,698.995 L 752.757,699.444 L 753.323,699.888 L 753.875,700.329 L 754.413,700.765 L 754.939,701.197 L 755.452,701.625 L 755.948,702.047 L 756.431,702.464 L 756.899,702.876 L 757.353,703.284 L 757.793,703.685 L 758.217,704.081 L 758.627,704.471 L 759.021,704.856 L 759.4,705.233 L 759.763,705.605 L 760.111,705.971 L 760.441,706.329 L 760.756,706.68 L 761.055,707.025 L 761.337,707.361 L 761.601,707.691 L 761.855,708.019 Z "/>
			</g>
		</g>
		<text id="dp_text007" transform="matrix(1,0,0,1,513.473,673.097)" xml:space="preserve" fill="#0916ca" font-family="Arial" font-size="15" font-weight="700" x="0" y="0">v</text>
		<text id="dp_text008" transform="matrix(1,0,0,1,513.473,673.097)" xml:space="preserve" fill="#0916ca" font-family="Arial" font-size="15" font-weight="400" x="8.46" y="0">+</text>
		<text id="dp_text009" transform="matrix(1,0,0,1,513.473,673.097)" xml:space="preserve" fill="#0916ca" font-family="Arial" font-size="15" font-weight="400" font-style="italic" x="17.3253" y="0">d</text>
		<text id="dp_text010" transform="matrix(1,0,0,1,513.473,673.097)" xml:space="preserve" fill="#0916ca" font-family="Arial" font-size="15" font-weight="700" x="25.7853" y="0">v</text>
		<text id="dp_text011" transform="matrix(1,0,0,1,513.473,673.097)" xml:space="preserve" fill="#0916ca" font-family="Arial" font-size="15" font-weight="700" x="34.2453" y="0"> </text>
		<text id="dp_text012" transform="matrix(1,0,0,1,566.494,622.972)" xml:space="preserve" fill="#0916ca" font-family="Arial" font-size="15" font-weight="700" x="0" y="0">v</text>
		<text id="dp_text013" transform="matrix(1,0,0,1,566.494,622.972)" xml:space="preserve" fill="#0916ca" font-family="Times New Roman" font-size="15" font-weight="400" x="8.46" y="0"> </text>
		<text id="dp_text014" transform="matrix(1,0,0,1,553.073,732.535)" xml:space="preserve" fill="#069a35" font-family="Arial" font-size="15" font-weight="700" x="0" y="0">a </text>
		<g id="dp_group036">
			<g id="dp_group037">
				<path id="dp_path038" fill="#0916ca" fill-rule="evenodd" d="M 649.315,657.927 L 649.316,657.864 L 649.319,657.801 L 649.324,657.74 L 649.331,657.677 L 649.34,657.615 L 649.351,657.553 L 649.363,657.491 L 649.377,657.429 L 649.395,657.368 L 649.412,657.307 L 649.432,657.247 L 649.453,657.185 L 649.477,657.127 L 649.503,657.067 L 649.529,657.007 L 649.559,656.948 L 649.588,656.891 L 649.621,656.832 L 649.655,656.775 L 649.689,656.719 L 649.727,656.663 L 649.765,656.608 L 649.807,656.553 L 649.848,656.499 L 649.892,656.447 L 649.937,656.393 L 649.983,656.343 L 650.032,656.292 L 650.081,656.241 L 650.132,656.193 L 650.185,656.145 L 650.24,656.097 L 650.295,656.052 L 650.352,656.007 L 650.411,655.963 L 650.471,655.92 L 650.532,655.877 L 650.595,655.836 L 650.659,655.797 L 650.724,655.759 L 650.791,655.721 L 650.859,655.685 L 650.928,655.651 L 650.999,655.617 L 651.071,655.585 L 651.144,655.555 L 651.219,655.525 L 651.295,655.499 L 651.371,655.472 L 651.449,655.447 L 651.528,655.424 L 651.609,655.403 L 651.691,655.383 L 651.773,655.364 L 651.857,655.347 L 651.941,655.332 L 652.028,655.319 L 652.115,655.307 L 652.204,655.297 L 652.293,655.289 L 652.383,655.283 L 652.475,655.279 L 652.567,655.276 L 652.66,655.276 L 652.753,655.277 L 652.845,655.28 L 652.936,655.285 L 653.027,655.292 L 653.116,655.301 L 653.204,655.312 L 653.291,655.325 L 653.377,655.34 L 653.461,655.356 L 653.545,655.375 L 653.628,655.395 L 653.709,655.416 L 653.789,655.44 L 653.868,655.465 L 653.947,655.492 L 654.024,655.521 L 654.099,655.552 L 654.173,655.584 L 654.245,655.617 L 654.317,655.653 L 654.388,655.691 L 654.456,655.729 L 654.524,655.769 L 654.591,655.812 L 654.656,655.855 L 654.72,655.9 L 654.781,655.947 L 654.843,655.995 L 654.903,656.044 L 654.96,656.096 L 655.017,656.148 L 655.072,656.203 L 655.125,656.259 L 655.177,656.316 L 655.229,656.373 L 655.277,656.435 L 655.325,656.495 L 655.372,656.559 L 655.416,656.621 L 655.459,656.688 L 655.5,656.755 L 655.54,656.823 L 655.579,656.892 L 655.615,656.963 L 655.649,657.035 L 655.683,657.108 L 655.715,657.183 L 655.744,657.259 L 655.772,657.335 L 655.799,657.413 L 655.823,657.492 L 655.847,657.573 L 655.868,657.655 L 655.887,657.737 L 655.904,657.821 L 655.92,657.905 L 655.933,657.992 L 655.945,658.079 L 655.956,658.168 L 655.964,658.257 L 655.971,658.347 L 655.975,658.439 L 655.977,658.531 L 655.979,658.624 L 655.976,658.717 L 655.973,658.809 L 655.968,658.9 L 655.961,658.991 L 655.952,659.08 L 655.94,659.168 L 655.928,659.255 L 655.913,659.341 L 655.897,659.425 L 655.879,659.509 L 655.859,659.592 L 655.836,659.673 L 655.813,659.753 L 655.788,659.832 L 655.761,659.911 L 655.732,659.988 L 655.701,660.063 L 655.669,660.137 L 655.636,660.209 L 655.6,660.281 L 655.563,660.352 L 655.524,660.42 L 655.484,660.488 L 655.441,660.555 L 655.397,660.62 L 655.353,660.684 L 655.307,660.745 L 655.259,660.807 L 655.208,660.867 L 655.157,660.924 L 655.104,660.981 L 655.051,661.036 L 654.995,661.089 L 654.937,661.141 L 654.879,661.193 L 654.819,661.241 L 654.757,661.289 L 654.695,661.336 L 654.631,661.38 L 654.565,661.423 L 654.499,661.464 L 654.431,661.504 L 654.361,661.543 L 654.291,661.579 L 654.219,661.613 L 654.145,661.647 L 654.071,661.679 L 653.995,661.708 L 653.919,661.736 L 653.84,661.763 L 653.761,661.787 L 653.68,661.811 L 653.599,661.832 L 653.516,661.851 L 653.432,661.868 L 653.348,661.884 L 653.261,661.897 L 653.173,661.909 L 653.085,661.92 L 652.996,661.928 L 652.907,661.935 L 652.815,661.939 L 652.723,661.941 L 652.629,661.943 L 652.536,661.94 L 652.444,661.937 L 652.353,661.932 L 652.263,661.925 L 652.173,661.916 L 652.085,661.905 L 651.997,661.893 L 651.912,661.879 L 651.828,661.863 L 651.744,661.845 L 651.661,661.827 L 651.58,661.805 L 651.5,661.783 L 651.42,661.759 L 651.343,661.733 L 651.265,661.707 L 651.191,661.677 L 651.116,661.648 L 651.043,661.617 L 650.972,661.584 L 650.901,661.551 L 650.832,661.516 L 650.764,661.479 L 650.697,661.441 L 650.632,661.403 L 650.569,661.361 L 650.507,661.32 L 650.447,661.279 L 650.387,661.235 L 650.328,661.189 L 650.272,661.144 L 650.216,661.097 L 650.163,661.051 L 650.111,661.001 L 650.06,660.952 L 650.011,660.901 L 649.963,660.851 L 649.917,660.799 L 649.872,660.745 L 649.829,660.692 L 649.788,660.637 L 649.748,660.583 L 649.709,660.527 L 649.673,660.471 L 649.637,660.415 L 649.605,660.357 L 649.573,660.299 L 649.544,660.24 L 649.515,660.181 L 649.488,660.123 L 649.464,660.063 L 649.441,660.001 L 649.42,659.941 L 649.4,659.88 L 649.383,659.82 L 649.367,659.759 L 649.353,659.696 L 649.341,659.635 L 649.331,659.572 L 649.323,659.509 L 649.316,659.448 L 649.312,659.385 L 649.309,659.323 L 649.308,659.26 Z "/>
				<path id="dp_path039" fill="#0916ca" fill-rule="evenodd" d="M 511.032,658.615 L 511.037,657.281 L 511.049,654.615 L 504.368,657.919 L 511.02,661.281 Z "/>
				<path id="dp_path040" fill="#0916ca" d="M 649.315,657.931 L 511.037,657.281 L 511.032,658.615 L 649.309,659.264 Z "/>
			</g>
		</g>
		<path id="dp_path041" fill="none" fill-rule="evenodd" stroke="black" stroke-width="1.33333" d="M 551.229,796.107 L 684.764,663.32"/>
		<text id="dp_text015" transform="matrix(1,0,0,1,677.506,679.138)" xml:space="preserve" fill="#fc6d00" font-family="Arial" font-size="14" font-weight="400" font-style="italic" x="0" y="0">dr</text>
		<text id="dp_text016" transform="matrix(1,0,0,1,677.506,679.138)" xml:space="preserve" fill="#fc6d00" font-family="Arial" font-size="14" font-weight="400" font-style="italic" x="12.2973" y="0"> </text>
		<path id="dp_path044" fill="none" fill-rule="evenodd" stroke="#fc6d00" stroke-width="1" d="M 672.044,675.984 L 684.477,663.623"/>
		<g id="dp_group045">
			<path id="dp_path046" fill="#fc6d00" fill-rule="evenodd" d="M 660.443,680.143 C 660.863,680.133 661.288,679.991 661.712,679.713 C 662.125,679.448 662.519,679.093 662.893,678.645 C 663.656,677.709 664.248,676.635 664.668,675.423 C 664.872,674.824 665.017,674.244 665.104,673.681 C 665.176,673.12 665.173,672.613 665.096,672.164 C 665.027,671.713 664.876,671.353 664.645,671.084 C 664.404,670.819 664.075,670.687 663.656,670.687 C 663.247,670.687 662.835,670.819 662.421,671.084 C 662.007,671.353 661.608,671.713 661.224,672.164 C 660.44,673.113 659.839,674.199 659.424,675.423 C 659.012,676.635 658.877,677.709 659.023,678.645 C 659.1,679.093 659.257,679.448 659.489,679.713 C 659.719,679.991 660.035,680.133 660.443,680.143 Z M 663.332,675.436 L 663.049,676.264 C 662.687,677.332 662.299,678.183 661.888,678.815 C 661.456,679.471 661.012,679.801 660.555,679.811 C 660.121,679.801 659.913,679.471 659.931,678.815 C 659.928,678.183 660.107,677.332 660.469,676.264 L 660.752,675.436 Z M 660.931,674.909 L 661.271,673.909 C 661.531,673.144 661.859,672.479 662.256,671.916 C 662.459,671.641 662.668,671.42 662.887,671.255 C 663.101,671.097 663.32,671.017 663.543,671.017 C 663.784,671.017 663.957,671.097 664.065,671.255 C 664.171,671.42 664.231,671.641 664.247,671.916 C 664.243,672.479 664.111,673.144 663.851,673.909 L 663.509,674.909 Z "/>
			<text id="dp_text017" transform="matrix(1,0,0,1,646.755,679.681)" xml:space="preserve" fill="#fc6d00" font-family="Arial" font-size="14" font-weight="400" font-style="italic" x="0" y="0">rd </text>
		</g>
		<path id="dp_path048" fill="none" fill-rule="evenodd" stroke="#0916ca" stroke-width="1.33333" d="M 557.652,624.029 L 504.496,657.916"/>
		<g id="dp_group049">
			<g id="dp_group050">
				<path id="dp_path051" fill="#0916ca" fill-rule="evenodd" d="M 537.913,637.437 L 537.196,636.313 L 535.76,634.067 L 531.937,640.465 L 539.351,639.684 Z "/>
				<path id="dp_path052" fill="#0916ca" d="M 557.293,623.468 L 537.196,636.313 L 537.913,637.436 L 558.011,624.591 Z "/>
			</g>
		</g>
		<path id="dp_path053" fill="none" fill-rule="evenodd" stroke="#fc6d00" stroke-width="1" d="M 671.984,675.984 L 652.464,657.916"/>
		<g id="dp_group054">
			<g id="dp_group055">
				<path id="dp_path056" fill="#fc6d00" fill-rule="evenodd" d="M 664.049,669.32 L 664.729,668.587 L 666.087,667.119 L 660.719,665.557 L 662.691,670.788 Z "/>
				<path id="dp_path057" fill="#fc6d00" d="M 672.324,675.617 L 664.729,668.587 L 664.049,669.32 L 671.644,676.351 Z "/>
			</g>
		</g>
		<g id="dp_group058">
			<g id="dp_group059">
				<path id="dp_path060" fill="#fc6d00" fill-rule="evenodd" d="M 680.488,668.293 L 679.783,667.584 L 678.372,666.165 L 676.589,671.464 L 681.897,669.712 Z "/>
				<path id="dp_path061" fill="#fc6d00" d="M 680.487,668.293 L 684.829,663.977 L 684.125,663.268 L 679.783,667.584 Z "/>
			</g>
		</g>
		<g id="dp_group062">
			<path id="dp_path063" fill="none" fill-rule="evenodd" stroke="#fc6d00" stroke-width="1.33333" d="M 652.147,658.249 L 615.556,629.479"/>
			<path id="dp_path064" fill="none" fill-rule="evenodd" stroke="#fc6d00" stroke-width="1.33333" d="M 616.444,630.143 L 624.049,636.072 L 618.12,643.677 L 610.515,637.748 Z "/>
			<path id="dp_path065" fill="none" fill-rule="evenodd" stroke="#fc6d00" stroke-width="1.33333" d="M 616.653,629.693 L 532.593,736.319"/>
		</g>
		<g id="dp_group066">
			<g id="dp_group067">
				<text id="dp_text018" transform="matrix(0.78326,0.621695,-0.621695,0.78326,601.611,608.993)" xml:space="preserve" fill="#fc6d00" font-family="Arial" font-size="12" font-weight="400" font-style="italic" x="0" y="0">r </text>
				<path id="dp_path069" fill="#fc6d00" fill-rule="evenodd" d="M 613.673,612.225 C 613.62,612.184 613.565,612.169 613.509,612.181 C 613.433,612.189 613.313,612.247 613.147,612.355 C 612.571,612.741 611.932,613.004 611.231,613.144 L 611.231,613.144 C 611.704,612.669 612.02,612.204 612.176,611.749 C 612.34,611.281 612.156,610.831 611.624,610.399 C 611.107,610.008 610.467,609.828 609.705,609.861 C 608.92,609.889 608.195,610.112 607.536,610.529 C 606.144,611.451 605.941,612.321 606.927,613.14 C 607.531,613.611 608.341,613.812 609.359,613.744 L 609.359,613.744 C 609.173,613.981 609.06,614.207 609.017,614.42 C 608.975,614.632 609.073,614.837 609.312,615.037 C 609.547,615.213 609.832,615.32 610.163,615.357 C 610.473,615.405 610.684,615.396 610.801,615.328 C 610.883,615.268 610.891,615.212 610.825,615.16 C 610.784,615.137 610.691,615.115 610.541,615.092 C 610.384,615.079 610.245,615.028 610.123,614.941 C 610.011,614.853 609.968,614.749 609.995,614.632 C 610.011,614.52 610.059,614.405 610.136,614.289 C 610.233,614.169 610.344,614.055 610.464,613.944 C 610.571,613.821 610.675,613.712 610.776,613.616 C 611.417,613.525 611.969,613.411 612.431,613.272 C 612.887,613.135 613.348,612.917 613.812,612.617 C 613.956,612.533 613.983,612.463 613.895,612.401 Z M 611.429,610.672 C 611.621,610.825 611.697,611.004 611.657,611.208 C 611.603,611.42 611.413,611.683 611.087,611.996 C 610.56,612.513 610.072,612.984 609.625,613.408 C 609.188,613.427 608.791,613.413 608.436,613.369 C 608.061,613.325 607.736,613.195 607.46,612.976 C 606.876,612.513 607.103,611.943 608.14,611.268 C 608.776,610.859 609.393,610.589 609.993,610.464 C 610.596,610.332 611.075,610.401 611.429,610.672 Z "/>
			</g>
			<text id="dp_text019" transform="matrix(0.784233,0.622467,-0.621695,0.78326,621.032,624.408)" xml:space="preserve" fill="#fc6d00" font-family="Arial" font-size="12" font-weight="400" x="0" y="0">2 </text>
			<path id="dp_path071" fill="#fc6d00" fill-rule="evenodd" d="M 633.572,631.039 C 634.017,630.753 634.341,630.461 634.545,630.167 C 634.745,629.865 634.855,629.584 634.873,629.324 C 634.908,629.063 634.883,628.837 634.801,628.647 C 634.724,628.456 634.632,628.317 634.524,628.232 C 634.444,628.169 634.375,628.155 634.311,628.185 C 634.283,628.231 634.247,628.448 634.204,628.837 C 634.16,629.017 634.044,629.231 633.856,629.476 C 633.755,629.603 633.628,629.727 633.475,629.851 C 633.319,629.983 633.128,630.121 632.9,630.267 C 632.743,630.368 632.561,630.475 632.355,630.585 C 632.131,630.696 631.893,630.788 631.644,630.863 C 631.389,630.936 631.148,630.967 630.92,630.953 C 630.673,630.944 630.457,630.867 630.275,630.721 C 630.085,630.571 629.999,630.395 630.013,630.191 C 630.007,629.988 630.119,629.812 630.348,629.664 C 630.596,629.512 630.887,629.388 631.221,629.288 C 631.545,629.18 631.853,629.035 632.147,628.855 C 632.564,628.595 632.603,628.325 632.263,628.045 C 631.909,627.775 631.529,627.773 631.125,628.044 C 630.843,628.233 630.615,628.443 630.441,628.669 C 630.253,628.885 630.043,629.073 629.807,629.233 C 629.576,629.381 629.325,629.447 629.055,629.428 C 628.769,629.419 628.531,629.337 628.336,629.183 C 628.163,629.045 628.088,628.892 628.111,628.723 C 628.111,628.555 628.176,628.385 628.304,628.212 C 628.435,628.043 628.588,627.884 628.764,627.735 C 628.928,627.591 629.089,627.468 629.245,627.367 C 629.473,627.22 629.691,627.103 629.903,627.015 C 630.091,626.92 630.275,626.84 630.453,626.775 C 630.808,626.663 631.112,626.599 631.364,626.583 C 631.909,626.592 632.215,626.589 632.283,626.576 C 632.333,626.535 632.32,626.483 632.241,626.42 C 632.009,626.236 631.517,626.117 630.771,626.067 C 630.413,626.057 630.016,626.109 629.575,626.22 C 629.132,626.324 628.688,626.521 628.244,626.807 C 627.699,627.159 627.379,627.579 627.292,628.067 C 627.173,628.555 627.359,629 627.843,629.405 C 628.103,629.601 628.399,629.719 628.731,629.757 C 629.052,629.799 629.389,629.771 629.739,629.676 L 629.739,629.676 C 629.576,629.92 629.509,630.161 629.539,630.4 C 629.559,630.64 629.684,630.856 629.915,631.049 C 630.433,631.44 631.041,631.624 631.74,631.599 C 632.409,631.573 633.019,631.387 633.572,631.039 Z "/>
			<text id="dp_text020" transform="matrix(0.78326,0.621695,-0.621695,0.78326,613.695,618.584)" xml:space="preserve" fill="#fc6d00" font-family="Arial" font-size="12" font-weight="400" x="0" y="0">+ </text>
			<text id="dp_text021" transform="matrix(0.78326,0.621695,-0.621695,0.78326,632.652,633.654)" xml:space="preserve" fill="#fc6d00" font-family="Arial" font-size="12" font-weight="400" font-style="italic" x="0" y="0">dr</text>
			<text id="dp_text022" transform="matrix(0.78326,0.621695,-0.621695,0.78326,632.652,633.654)" xml:space="preserve" fill="#fc6d00" font-family="Arial" font-size="12" font-weight="400" font-style="italic" x="10.3413" y="0">/</text>
			<text id="dp_text023" transform="matrix(0.78326,0.621695,-0.621695,0.78326,632.652,633.654)" xml:space="preserve" fill="#fc6d00" font-family="Arial" font-size="12" font-weight="400" font-style="italic" x="13.5627" y="0">dt</text>
			<text id="dp_text024" transform="matrix(0.78326,0.621695,-0.621695,0.78326,632.652,633.654)" xml:space="preserve" fill="#fc6d00" font-family="Arial" font-size="12" font-weight="400" font-style="italic" x="23.2547" y="0"> </text>
		</g>
		<g id="dp_group077">
			<text id="dp_text025" transform="matrix(0.646257,-0.76312,0.76312,0.646257,549.779,706.595)" xml:space="preserve" fill="#fc6d00" font-family="Arial" font-size="12" font-weight="400" x="0" y="0">−</text>
			<text id="dp_text026" transform="matrix(0.646257,-0.76312,0.76312,0.646257,549.779,706.595)" xml:space="preserve" fill="#fc6d00" font-family="Arial" font-size="12" font-weight="400" x="6.78" y="0"> </text>
			<g id="dp_group080">
				<text id="dp_text027" transform="matrix(0.646257,-0.76312,0.76312,0.646257,555.807,699.476)" xml:space="preserve" fill="#fc6d00" font-family="Arial" font-size="12" font-weight="400" font-style="italic" x="0" y="0">r </text>
				<path id="dp_path082" fill="#fc6d00" fill-rule="evenodd" d="M 561.773,689.057 C 561.5,688.601 561.219,688.267 560.929,688.053 C 560.632,687.843 560.355,687.724 560.095,687.696 C 559.833,687.653 559.605,687.672 559.411,687.748 C 559.219,687.819 559.077,687.907 558.988,688.012 C 558.921,688.091 558.904,688.16 558.933,688.225 C 558.979,688.255 559.195,688.297 559.584,688.352 C 559.763,688.403 559.973,688.527 560.215,688.723 C 560.337,688.828 560.459,688.96 560.577,689.117 C 560.704,689.277 560.839,689.475 560.977,689.707 C 561.075,689.868 561.175,690.052 561.279,690.263 C 561.383,690.492 561.468,690.733 561.535,690.987 C 561.6,691.244 561.624,691.487 561.601,691.715 C 561.585,691.964 561.501,692.176 561.349,692.356 C 561.192,692.541 561.013,692.623 560.808,692.6 C 560.604,692.6 560.432,692.484 560.291,692.247 C 560.147,691.995 560.031,691.7 559.941,691.36 C 559.844,691.032 559.708,690.717 559.536,690.417 C 559.288,689.991 559.02,689.943 558.728,690.276 C 558.444,690.623 558.432,691.003 558.689,691.417 C 558.872,691.705 559.073,691.941 559.296,692.123 C 559.507,692.319 559.688,692.536 559.841,692.777 C 559.983,693.013 560.04,693.267 560.013,693.539 C 559.995,693.825 559.904,694.063 559.744,694.252 C 559.6,694.421 559.445,694.492 559.275,694.463 C 559.107,694.459 558.939,694.387 558.768,694.255 C 558.603,694.117 558.447,693.957 558.304,693.776 C 558.165,693.607 558.048,693.441 557.951,693.28 C 557.811,693.049 557.7,692.825 557.619,692.612 C 557.528,692.419 557.455,692.232 557.396,692.051 C 557.293,691.689 557.239,691.384 557.231,691.131 C 557.259,690.584 557.265,690.277 557.255,690.208 C 557.213,690.156 557.161,690.168 557.097,690.245 C 556.904,690.473 556.769,690.963 556.695,691.711 C 556.675,692.068 556.712,692.468 556.811,692.915 C 556.901,693.361 557.084,693.813 557.357,694.268 C 557.693,694.828 558.104,695.161 558.589,695.264 C 559.076,695.397 559.529,695.227 559.951,694.753 C 560.156,694.5 560.284,694.207 560.333,693.875 C 560.385,693.553 560.368,693.215 560.284,692.86 L 560.284,692.86 C 560.523,693.031 560.764,693.105 561.003,693.084 C 561.244,693.072 561.465,692.952 561.667,692.727 C 562.076,692.22 562.28,691.615 562.276,690.912 C 562.273,690.24 562.105,689.623 561.773,689.057 Z "/>
				<text id="dp_text028" transform="matrix(0.646257,-0.76312,0.76312,0.646257,561.437,688.033)" xml:space="preserve" fill="#fc6d00" font-family="Arial" font-size="8" font-weight="400" x="0" y="0">2 </text>
			</g>
			<text id="dp_text029" transform="matrix(0.646257,-0.76312,0.76312,0.646257,529.487,733.987)" xml:space="preserve" fill="#fc6d00" font-family="Arial" font-size="12" font-weight="400" font-style="italic" x="0" y="0">d r/</text>
			<text id="dp_text030" transform="matrix(0.646257,-0.76312,0.76312,0.646257,529.487,733.987)" xml:space="preserve" fill="#fc6d00" font-family="Arial" font-size="12" font-weight="400" font-style="italic" x="16.7827" y="0">dt</text>
			<text id="dp_text031" transform="matrix(0.646257,-0.76312,0.76312,0.646257,529.487,733.987)" xml:space="preserve" fill="#fc6d00" font-family="Arial" font-size="12" font-weight="400" font-style="italic" x="26.4747" y="0"> </text>
			<text id="dp_text032" transform="matrix(0.646257,-0.76312,0.76312,0.646257,530.07,724.799)" xml:space="preserve" fill="#fc6d00" font-family="Arial" font-size="8" font-weight="400" x="0" y="0">2 </text>
			<text id="dp_text033" transform="matrix(0.646257,-0.76312,0.76312,0.646257,543.366,709.099)" xml:space="preserve" fill="#fc6d00" font-family="Arial" font-size="8" font-weight="400" x="0" y="0">2 </text>
		</g>
		<g id="dp_group089">
			<g id="dp_group090">
				<path id="dp_path091" fill="black" fill-rule="evenodd" d="M 677.264,622.172 L 679.407,623.759 L 683.693,626.931 L 686.268,612.248 L 672.977,618.999 Z "/>
				<path id="dp_path092" fill="black" d="M 653.537,658.708 L 679.408,623.759 L 677.264,622.172 L 651.393,657.121 Z "/>
			</g>
		</g>
		<path id="dp_path093" fill="none" fill-rule="evenodd" stroke="black" stroke-width="1.33333" d="M 551.228,796.107 L 652.7,658.697"/>
		<g id="dp_group094">
			<g id="dp_group095">
				<path id="dp_path096" fill="#069a35" fill-rule="evenodd" d="M 541.725,731.301 L 540.64,729.621 L 538.471,726.261 L 532.783,735.888 L 543.896,734.661 Z "/>
				<path id="dp_path097" fill="#069a35" d="M 652.172,657.576 L 540.64,729.621 L 541.725,731.301 L 653.257,659.256 Z "/>
			</g>
		</g>
		<g id="dp_group098">
			<g id="dp_group099">
				<path id="dp_path100" fill="#fc6d00" fill-rule="evenodd" d="M 581.313,675.599 L 580.267,674.773 L 578.172,673.121 L 576.663,680.421 L 583.408,677.249 Z "/>
				<path id="dp_path101" fill="#fc6d00" d="M 616.129,629.28 L 580.265,674.772 L 581.313,675.599 L 617.177,630.107 Z "/>
			</g>
		</g>
		<g id="dp_group102">
			<g id="dp_group103">
				<path id="dp_path104" fill="#fc6d00" fill-rule="evenodd" d="M 639.639,649.263 L 640.463,648.215 L 642.111,646.119 L 634.811,644.617 L 637.989,651.359 Z "/>
				<path id="dp_path105" fill="#fc6d00" d="M 652.559,657.725 L 640.463,648.215 L 639.639,649.263 L 651.735,658.773 Z "/>
			</g>
		</g>
	</g>
</svg>