<?xml version="1.0" encoding="UTF-8" standalone="no"?>
<!-- Created with Serif DrawPlus 11, 0, 3, 23 (Feb 25, 14:12:55) (http://www.serif.com) -->
<svg version="1.1" xmlns="http://www.w3.org/2000/svg" xmlns:xlink="http://www.w3.org/1999/xlink" width="154.873" height="212.368">
	<g id="dp_group001" transform="matrix(1,0,0,1,-36.592,-791.168)">
		<g id="dp_group002">
			<g id="dp_group003">
				<path id="dp_path004" fill="black" fill-rule="evenodd" d="M 163.7,828.808 L 165.843,830.395 L 170.129,833.567 L 172.704,818.884 L 159.413,825.635 Z "/>
				<path id="dp_path005" fill="black" d="M 139.973,865.344 L 165.844,830.395 L 163.7,828.808 L 137.829,863.757 Z "/>
			</g>
		</g>
		<g id="dp_group006">
			<g id="dp_group007">
				<path id="dp_path008" fill="black" fill-rule="evenodd" d="M 103.156,839.751 L 104.743,837.608 L 107.915,833.321 L 93.232,830.747 L 99.9827,844.037 Z "/>
				<path id="dp_path009" fill="black" d="M 139.692,863.479 L 104.743,837.607 L 103.156,839.751 L 138.105,865.623 Z "/>
			</g>
		</g>
		<g id="dp_group010">
			<text id="dp_text001" transform="matrix(1,0,0,1,71.7413,822.046)" xml:space="preserve" fill="black" font-family="Arial" font-size="21" font-weight="700" x="0" y="0">e </text>
			<path id="dp_path012" fill="black" fill-rule="evenodd" d="M 84.4707,826.939 C 84.924,826.929 85.38,826.776 85.836,826.477 C 86.28,826.193 86.7027,825.812 87.1053,825.331 C 87.924,824.325 88.56,823.171 89.0133,821.867 C 89.232,821.224 89.388,820.6 89.48,819.996 C 89.5587,819.392 89.556,818.848 89.472,818.365 C 89.3973,817.881 89.2347,817.495 88.988,817.205 C 88.728,816.919 88.3747,816.777 87.924,816.777 C 87.484,816.777 87.0413,816.919 86.5973,817.205 C 86.152,817.495 85.724,817.881 85.312,818.365 C 84.468,819.385 83.8227,820.552 83.376,821.867 C 82.9333,823.171 82.7893,824.325 82.9453,825.331 C 83.0293,825.812 83.1973,826.193 83.4467,826.477 C 83.6933,826.776 84.0333,826.929 84.4707,826.939 Z M 87.576,821.881 L 87.2733,822.771 C 86.884,823.92 86.4667,824.833 86.0253,825.512 C 85.56,826.217 85.0827,826.573 84.592,826.583 C 84.1253,826.573 83.9027,826.217 83.9213,825.512 C 83.9187,824.833 84.1107,823.92 84.5,822.771 L 84.804,821.881 Z M 84.996,821.315 L 85.3613,820.241 C 85.64,819.419 85.9933,818.704 86.42,818.099 C 86.6373,817.804 86.864,817.567 87.0973,817.388 C 87.328,817.219 87.564,817.133 87.804,817.133 C 88.0613,817.133 88.248,817.219 88.3653,817.388 C 88.4773,817.567 88.5413,817.804 88.5587,818.099 C 88.5547,818.704 88.4133,819.419 88.1333,820.241 L 87.768,821.315 Z "/>
		</g>
		<g id="dp_group013">
			<text id="dp_text002" transform="matrix(1,0,0,1,165.187,812.587)" xml:space="preserve" fill="black" font-family="Arial" font-size="21" font-weight="700" x="0" y="0">e </text>
			<text id="dp_text003" transform="matrix(1,0,0,1,176.406,817.222)" xml:space="preserve" fill="black" font-family="Arial" font-size="15" font-weight="400" font-style="italic" x="0" y="0">r </text>
		</g>
		<g id="dp_group016">
			<g id="dp_group017">
				<path id="dp_path018" fill="black" d="M 139.501,866.704 L 140.515,867.468 L 141.521,868.239 L 142.523,869.017 L 143.517,869.804 L 144.505,870.596 L 145.487,871.396 L 146.463,872.204 L 147.432,873.016 L 148.395,873.837 L 149.351,874.665 L 150.301,875.5 L 151.244,876.341 L 152.181,877.189 L 153.112,878.044 L 154.035,878.905 L 154.952,879.773 L 155.864,880.649 L 156.767,881.531 L 157.663,882.419 L 158.555,883.313 L 159.437,884.213 L 160.315,885.121 L 161.184,886.035 L 162.047,886.955 L 162.903,887.881 L 163.751,888.813 L 164.593,889.752 L 165.429,890.696 L 166.256,891.647 L 167.077,892.605 L 167.891,893.568 L 168.697,894.537 L 169.497,895.512 L 170.288,896.493 L 171.073,897.48 L 171.851,898.473 L 172.62,899.472 L 173.383,900.476 L 174.139,901.488 L 174.887,902.501 L 175.625,903.524 L 176.359,904.552 L 177.084,905.583 L 177.803,906.621 L 178.513,907.665 L 179.216,908.715 L 179.911,909.769 L 180.597,910.829 L 181.277,911.895 L 181.948,912.965 L 182.612,914.041 L 183.268,915.121 L 183.916,916.208 L 184.556,917.299 L 185.188,918.396 L 185.813,919.496 L 186.429,920.603 L 187.037,921.715 L 187.637,922.831 L 188.229,923.952 L 188.813,925.079 L 189.389,926.209 L 189.659,926.749 L 39.8307,1000.93 L 139.016,866.344 L 139.501,866.704 L 140.299,865.637 L 138.739,864.477 L 37.128,1002.35 L 37.96,1003.34 L 191.448,927.349 L 190.579,925.609 L 189.997,924.471 L 189.411,923.336 L 188.813,922.204 L 188.208,921.08 L 187.595,919.96 L 186.973,918.845 L 186.345,917.735 L 185.708,916.629 L 185.063,915.531 L 184.409,914.436 L 183.748,913.345 L 183.079,912.261 L 182.403,911.183 L 181.717,910.109 L 181.025,909.041 L 180.325,907.979 L 179.617,906.921 L 178.901,905.869 L 178.177,904.823 L 177.447,903.781 L 176.708,902.748 L 175.961,901.717 L 175.208,900.693 L 174.447,899.676 L 173.679,898.664 L 172.901,897.657 L 172.119,896.656 L 171.328,895.661 L 170.529,894.672 L 169.724,893.689 L 168.912,892.712 L 168.091,891.741 L 167.264,890.777 L 166.429,889.819 L 165.588,888.867 L 164.74,887.92 L 163.884,886.98 L 163.02,886.048 L 162.152,885.12 L 161.275,884.199 L 160.392,883.285 L 159.501,882.377 L 158.604,881.475 L 157.7,880.581 L 156.789,879.692 L 155.872,878.811 L 154.947,877.935 L 154.016,877.068 L 153.077,876.205 L 152.135,875.352 L 151.184,874.503 L 150.225,873.663 L 149.261,872.827 L 148.291,872 L 147.316,871.18 L 146.332,870.367 L 145.343,869.561 L 144.347,868.761 L 143.344,867.969 L 142.335,867.185 L 141.32,866.407 L 140.299,865.637 Z "/>
			</g>
		</g>
		<g id="dp_group019">
			<g id="dp_group020">
				<path id="dp_path021" fill="black" fill-rule="evenodd" d="M 186.076,928.523 L 186.668,929.717 L 186.656,932.699 L 190.553,927.049 L 183.697,926.724 Z "/>
				<path id="dp_path022" fill="black" d="M 37.9613,1003.34 L 186.668,929.717 L 186.076,928.523 L 37.3693,1002.15 Z "/>
			</g>
		</g>
		<g id="dp_group023">
			<g id="dp_group024">
				<path id="dp_path025" fill="#ca0808" fill-rule="evenodd" d="M 132.519,872.049 L 134.664,873.633 L 137.371,878.945 L 139.135,865.332 L 126.644,871.027 Z "/>
				<path id="dp_path026" fill="#ca0808" d="M 38.736,1003.53 L 134.664,873.633 L 132.52,872.049 L 36.592,1001.95 Z "/>
			</g>
		</g>
		<text id="dp_text004" transform="matrix(1,0,0,1,73.8187,930.809)" xml:space="preserve" fill="#ca0808" font-family="Arial" font-size="21" font-weight="700" x="0" y="0">r </text>
		<path id="dp_path028" fill="black" fill-rule="evenodd" d="M 178.336,894.728 C 178.989,894.715 179.648,894.493 180.307,894.063 C 180.948,893.652 181.559,893.1 182.139,892.407 C 183.321,890.955 184.239,889.288 184.892,887.407 C 185.208,886.479 185.433,885.579 185.567,884.707 C 185.68,883.835 185.676,883.049 185.555,882.352 C 185.448,881.655 185.213,881.096 184.857,880.677 C 184.483,880.265 183.972,880.06 183.321,880.06 C 182.687,880.06 182.048,880.265 181.407,880.677 C 180.764,881.096 180.145,881.655 179.551,882.352 C 178.333,883.824 177.401,885.509 176.757,887.407 C 176.119,889.288 175.909,890.955 176.135,892.407 C 176.256,893.1 176.499,893.652 176.859,894.063 C 177.213,894.493 177.705,894.715 178.336,894.728 Z M 182.819,887.428 L 182.381,888.712 C 181.819,890.369 181.217,891.689 180.58,892.668 C 179.909,893.685 179.22,894.2 178.512,894.215 C 177.839,894.2 177.516,893.685 177.544,892.668 C 177.539,891.689 177.817,890.369 178.38,888.712 L 178.817,887.428 Z M 179.095,886.611 L 179.621,885.06 C 180.025,883.872 180.533,882.841 181.149,881.968 C 181.464,881.541 181.791,881.199 182.128,880.941 C 182.461,880.697 182.8,880.575 183.147,880.575 C 183.52,880.575 183.789,880.697 183.957,880.941 C 184.12,881.199 184.212,881.541 184.237,881.968 C 184.232,882.841 184.027,883.872 183.624,885.06 L 183.095,886.611 Z "/>
		<g id="dp_group029">
			<g id="dp_group030">
				<path id="dp_path031" fill="black" fill-rule="evenodd" d="M 170.908,897.313 L 171.94,896.469 L 174.004,894.781 L 167.205,891.729 L 168.843,899 Z "/>
				<path id="dp_path032" fill="black" d="M 170.908,897.312 L 171.708,898.291 L 172.511,899.329 L 173.309,900.379 L 174.1,901.435 L 174.883,902.496 L 175.655,903.564 L 176.421,904.639 L 177.179,905.72 L 177.929,906.807 L 178.671,907.899 L 179.403,908.997 L 180.127,910.101 L 180.843,911.212 L 181.549,912.327 L 182.248,913.449 L 182.939,914.577 L 183.62,915.711 L 184.293,916.849 L 184.957,917.995 L 185.613,919.144 L 186.26,920.299 L 186.899,921.46 L 187.529,922.627 L 188.149,923.799 L 188.76,924.975 L 189.363,926.157 L 189.957,927.348 L 191.149,926.751 L 190.552,925.557 L 189.944,924.367 L 189.328,923.18 L 188.703,922 L 188.069,920.823 L 187.425,919.653 L 186.773,918.488 L 186.112,917.331 L 185.443,916.177 L 184.764,915.028 L 184.077,913.887 L 183.381,912.751 L 182.677,911.62 L 181.965,910.495 L 181.244,909.376 L 180.512,908.264 L 179.775,907.157 L 179.028,906.055 L 178.272,904.96 L 177.509,903.871 L 176.737,902.788 L 175.957,901.712 L 175.169,900.64 L 174.373,899.576 L 173.567,898.519 L 172.751,897.461 L 171.94,896.469 Z "/>
			</g>
		</g>
		<text id="dp_text005" transform="matrix(1,0,0,1,125.819,974.59)" xml:space="preserve" fill="black" font-family="Arial" font-size="21" font-weight="400" font-style="italic" x="0" y="0">r </text>
	</g>
</svg>