<?xml version="1.0" encoding="UTF-8" standalone="no"?>
<!-- Created with Serif DrawPlus 11, 0, 3, 23 (Feb 25, 14:12:55) (http://www.serif.com) -->
<svg version="1.1" xmlns="http://www.w3.org/2000/svg" xmlns:xlink="http://www.w3.org/1999/xlink" width="254.876" height="211.743">
	<g id="dp_group001" transform="matrix(1,0,0,1,-536.8,-798.947)">
		<path id="dp_path002" fill="none" fill-rule="evenodd" stroke="black" stroke-width="1.33333" d="M 678.295,850.075 L 690.763,859.552 L 681.283,872.023 L 668.815,862.544 Z "/>
		<g id="dp_group003">
			<g id="dp_group004">
				<path id="dp_path005" fill="black" fill-rule="evenodd" d="M 640.444,841.792 L 642.087,839.692 L 645.371,835.491 L 630.761,832.529 L 637.159,845.995 Z "/>
				<path id="dp_path006" fill="black" d="M 682.101,870.971 L 642.087,839.691 L 640.444,841.792 L 680.459,873.072 Z "/>
			</g>
		</g>
		<g id="dp_group007">
			<text id="dp_text001" transform="matrix(1,0,0,1,712.464,824.715)" xml:space="preserve" fill="black" font-family="Arial" font-size="15" font-weight="700" x="0" y="0">e </text>
			<text id="dp_text002" transform="matrix(1,0,0,1,720.446,828.013)" xml:space="preserve" fill="black" font-family="Arial" font-size="11" font-weight="400" font-style="italic" x="0" y="0">r </text>
		</g>
		<text id="dp_text003" transform="matrix(0.614561,-0.78887,0.78887,0.614561,626.663,939.933)" xml:space="preserve" fill="#ca0808" font-family="Arial" font-size="15" font-weight="700" x="0" y="0">r</text>
		<text id="dp_text004" transform="matrix(0.614561,-0.78887,0.78887,0.614561,626.663,939.933)" xml:space="preserve" fill="#ca0808" font-family="Arial" font-size="15" font-weight="400" x="5.93333" y="0">+</text>
		<text id="dp_text005" transform="matrix(0.614561,-0.78887,0.78887,0.614561,626.663,939.933)" xml:space="preserve" fill="#ca0808" font-family="Arial" font-size="15" font-weight="400" font-style="italic" x="14.8333" y="0">d</text>
		<text id="dp_text006" transform="matrix(0.614561,-0.78887,0.78887,0.614561,626.663,939.933)" xml:space="preserve" fill="#ca0808" font-family="Arial" font-size="15" font-weight="700" x="23.3267" y="0">r</text>
		<text id="dp_text007" transform="matrix(0.614561,-0.78887,0.78887,0.614561,626.663,939.933)" xml:space="preserve" fill="#ca0808" font-family="Arial" font-size="15" font-weight="700" x="29.26" y="0"> </text>
		<g id="dp_group015">
			<text id="dp_text008" transform="matrix(1,0,0,1,644.571,834.778)" xml:space="preserve" fill="black" font-family="Arial" font-size="15" font-weight="700" x="0" y="0">e </text>
			<path id="dp_path017" fill="black" fill-rule="evenodd" d="M 653.628,838.26 C 653.951,838.253 654.275,838.144 654.6,837.932 C 654.916,837.729 655.216,837.457 655.503,837.115 C 656.085,836.4 656.539,835.579 656.86,834.651 C 657.016,834.193 657.127,833.749 657.192,833.32 C 657.248,832.891 657.247,832.503 657.187,832.159 C 657.133,831.815 657.019,831.54 656.843,831.333 C 656.657,831.131 656.407,831.029 656.085,831.029 C 655.772,831.029 655.457,831.131 655.141,831.333 C 654.825,831.54 654.52,831.815 654.227,832.159 C 653.627,832.885 653.167,833.716 652.849,834.651 C 652.535,835.579 652.432,836.4 652.543,837.115 C 652.603,837.457 652.721,837.729 652.9,837.932 C 653.075,838.144 653.317,838.253 653.628,838.26 Z M 655.837,834.661 L 655.623,835.293 C 655.345,836.111 655.048,836.761 654.735,837.244 C 654.404,837.747 654.064,838 653.715,838.007 C 653.383,838 653.224,837.747 653.237,837.244 C 653.235,836.761 653.372,836.111 653.649,835.293 L 653.865,834.661 Z M 654.003,834.259 L 654.261,833.493 C 654.46,832.908 654.712,832.4 655.015,831.969 C 655.169,831.76 655.331,831.591 655.497,831.464 C 655.661,831.343 655.829,831.283 656,831.283 C 656.184,831.283 656.316,831.343 656.399,831.464 C 656.479,831.591 656.525,831.76 656.537,831.969 C 656.535,832.4 656.433,832.908 656.235,833.493 L 655.975,834.259 Z "/>
		</g>
		<g id="dp_group018">
			<g id="dp_group019">
				<path id="dp_path020" fill="#0916ca" fill-rule="evenodd" d="M 542.124,924.451 L 541.213,923.477 L 539.391,921.531 L 536.8,928.52 L 543.945,926.399 Z "/>
				<path id="dp_path021" fill="#0916ca" d="M 791.727,921.311 L 791.465,920.975 L 791.185,920.624 L 790.887,920.269 L 790.575,919.908 L 790.244,919.541 L 789.9,919.169 L 789.541,918.791 L 789.165,918.405 L 788.776,918.017 L 788.371,917.621 L 787.951,917.221 L 787.516,916.815 L 787.065,916.405 L 786.603,915.989 L 786.124,915.569 L 785.633,915.144 L 785.127,914.715 L 784.608,914.281 L 784.075,913.841 L 783.528,913.4 L 782.968,912.953 L 782.395,912.501 L 781.811,912.049 L 781.212,911.591 L 780.6,911.128 L 779.977,910.664 L 779.341,910.197 L 778.693,909.725 L 778.033,909.251 L 777.36,908.776 L 776.679,908.296 L 775.984,907.815 L 775.277,907.329 L 774.56,906.844 L 773.832,906.356 L 773.093,905.865 L 772.344,905.373 L 771.584,904.88 L 770.813,904.384 L 770.033,903.888 L 769.243,903.391 L 768.441,902.891 L 767.632,902.392 L 766.812,901.892 L 765.984,901.391 L 765.145,900.889 L 764.3,900.388 L 763.444,899.885 L 762.58,899.383 L 761.707,898.883 L 760.825,898.379 L 759.936,897.879 L 759.039,897.377 L 758.133,896.877 L 757.223,896.379 L 756.303,895.88 L 755.375,895.383 L 754.44,894.888 L 753.499,894.393 L 752.551,893.9 L 751.595,893.409 L 750.633,892.92 L 749.665,892.433 L 748.693,891.948 L 747.712,891.465 L 746.727,890.985 L 745.735,890.509 L 744.74,890.035 L 743.739,889.561 L 742.729,889.093 L 741.719,888.627 L 740.701,888.165 L 739.68,887.705 L 738.653,887.251 L 737.624,886.799 L 736.589,886.351 L 735.552,885.908 L 734.509,885.468 L 733.463,885.033 L 732.413,884.603 L 731.361,884.179 L 730.307,883.757 L 729.247,883.341 L 728.187,882.931 L 727.123,882.524 L 726.056,882.124 L 724.987,881.729 L 723.916,881.34 L 722.843,880.957 L 721.769,880.58 L 720.692,880.208 L 719.613,879.843 L 718.536,879.485 L 717.456,879.135 L 716.375,878.789 L 715.292,878.451 L 714.209,878.119 L 713.127,877.795 L 712.043,877.479 L 710.96,877.169 L 709.877,876.867 L 708.793,876.573 L 707.712,876.288 L 706.628,876.009 L 705.547,875.74 L 704.465,875.479 L 703.387,875.225 L 702.308,874.98 L 701.231,874.747 L 700.156,874.519 L 699.081,874.301 L 698.009,874.093 L 696.94,873.895 L 695.872,873.705 L 694.807,873.525 L 693.743,873.355 L 692.684,873.196 L 691.625,873.045 L 690.572,872.908 L 689.52,872.777 L 688.472,872.659 L 687.428,872.552 L 686.387,872.455 L 685.351,872.369 L 684.317,872.295 L 683.288,872.231 L 682.264,872.18 L 681.245,872.14 L 680.261,872.109 L 679.275,872.083 L 678.281,872.061 L 677.285,872.044 L 676.284,872.031 L 675.277,872.023 L 674.268,872.017 L 673.256,872.02 L 672.237,872.027 L 671.215,872.037 L 670.187,872.053 L 669.157,872.075 L 668.123,872.101 L 667.083,872.132 L 666.041,872.169 L 664.993,872.211 L 663.943,872.259 L 662.889,872.312 L 661.832,872.371 L 660.771,872.435 L 659.704,872.505 L 658.636,872.581 L 657.564,872.663 L 656.488,872.751 L 655.409,872.844 L 654.327,872.945 L 653.243,873.051 L 652.153,873.163 L 651.061,873.281 L 649.965,873.405 L 648.868,873.537 L 647.767,873.676 L 646.664,873.82 L 645.556,873.969 L 644.447,874.128 L 643.333,874.292 L 642.219,874.464 L 641.1,874.643 L 639.98,874.827 L 638.857,875.02 L 637.731,875.219 L 636.603,875.427 L 635.472,875.64 L 634.339,875.861 L 633.204,876.091 L 632.067,876.327 L 630.927,876.572 L 629.785,876.823 L 628.641,877.081 L 627.495,877.349 L 626.347,877.625 L 625.199,877.907 L 624.047,878.199 L 622.893,878.497 L 621.739,878.805 L 620.581,879.119 L 619.421,879.443 L 618.261,879.775 L 617.1,880.116 L 615.936,880.465 L 614.772,880.823 L 613.607,881.189 L 612.439,881.564 L 611.271,881.948 L 610.101,882.34 L 608.931,882.741 L 607.759,883.152 L 606.585,883.571 L 605.409,884 L 604.235,884.439 L 603.059,884.885 L 601.883,885.343 L 600.705,885.808 L 599.527,886.283 L 598.347,886.769 L 597.168,887.264 L 595.988,887.768 L 594.808,888.283 L 593.627,888.807 L 592.445,889.341 L 591.264,889.884 L 590.081,890.44 L 588.9,891.003 L 587.716,891.579 L 586.535,892.163 L 585.351,892.757 L 584.168,893.363 L 582.985,893.979 L 581.804,894.607 L 580.621,895.243 L 579.439,895.891 L 578.256,896.551 L 577.075,897.219 L 575.895,897.9 L 574.712,898.591 L 573.532,899.295 L 572.352,900.008 L 571.173,900.732 L 569.995,901.468 L 568.816,902.216 L 567.639,902.975 L 566.463,903.745 L 565.287,904.527 L 564.112,905.321 L 562.939,906.127 L 561.767,906.943 L 560.595,907.772 L 559.424,908.613 L 558.255,909.467 L 557.087,910.332 L 555.921,911.208 L 554.756,912.097 L 553.591,912.999 L 552.428,913.912 L 551.267,914.839 L 550.108,915.777 L 548.951,916.728 L 547.795,917.693 L 546.64,918.669 L 545.488,919.659 L 544.336,920.661 L 543.187,921.676 L 542.037,922.707 L 541.212,923.477 L 542.124,924.451 L 542.936,923.688 L 544.072,922.671 L 545.213,921.661 L 546.357,920.667 L 547.504,919.683 L 548.651,918.712 L 549.799,917.755 L 550.951,916.809 L 552.101,915.876 L 553.255,914.957 L 554.409,914.049 L 555.567,913.153 L 556.724,912.269 L 557.884,911.399 L 559.044,910.539 L 560.205,909.693 L 561.368,908.857 L 562.532,908.033 L 563.696,907.223 L 564.861,906.423 L 566.028,905.633 L 567.196,904.857 L 568.364,904.092 L 569.533,903.339 L 570.704,902.596 L 571.875,901.865 L 573.045,901.144 L 574.217,900.436 L 575.389,899.737 L 576.561,899.052 L 577.736,898.376 L 578.909,897.711 L 580.081,897.056 L 581.256,896.413 L 582.431,895.78 L 583.604,895.157 L 584.779,894.547 L 585.953,893.944 L 587.127,893.355 L 588.303,892.773 L 589.476,892.203 L 590.649,891.643 L 591.824,891.092 L 592.997,890.552 L 594.171,890.023 L 595.344,889.501 L 596.516,888.992 L 597.688,888.491 L 598.859,887.999 L 600.028,887.517 L 601.199,887.045 L 602.368,886.583 L 603.536,886.128 L 604.704,885.684 L 605.871,885.251 L 607.036,884.824 L 608.201,884.408 L 609.365,884 L 610.528,883.601 L 611.689,883.212 L 612.849,882.831 L 614.009,882.459 L 615.167,882.095 L 616.323,881.74 L 617.479,881.393 L 618.632,881.055 L 619.784,880.725 L 620.933,880.404 L 622.083,880.091 L 623.229,879.785 L 624.375,879.489 L 625.519,879.2 L 626.661,878.919 L 627.801,878.645 L 628.937,878.38 L 630.073,878.124 L 631.209,877.873 L 632.341,877.631 L 633.471,877.395 L 634.597,877.168 L 635.723,876.949 L 636.845,876.736 L 637.965,876.531 L 639.084,876.332 L 640.199,876.141 L 641.313,875.957 L 642.424,875.779 L 643.531,875.609 L 644.636,875.445 L 645.737,875.289 L 646.837,875.14 L 647.935,874.996 L 649.028,874.86 L 650.12,874.728 L 651.208,874.604 L 652.292,874.488 L 653.373,874.376 L 654.452,874.271 L 655.527,874.172 L 656.6,874.079 L 657.668,873.991 L 658.732,873.909 L 659.795,873.833 L 660.853,873.765 L 661.907,873.701 L 662.959,873.643 L 664.007,873.589 L 665.049,873.541 L 666.089,873.5 L 667.125,873.463 L 668.157,873.432 L 669.187,873.405 L 670.211,873.384 L 671.231,873.368 L 672.248,873.357 L 673.259,873.351 L 674.268,873.351 L 675.272,873.353 L 676.271,873.361 L 677.267,873.375 L 678.257,873.392 L 679.243,873.413 L 680.224,873.44 L 681.2,873.471 L 682.205,873.511 L 683.216,873.561 L 684.229,873.623 L 685.249,873.697 L 686.272,873.783 L 687.3,873.877 L 688.331,873.984 L 689.365,874.1 L 690.404,874.228 L 691.447,874.365 L 692.492,874.513 L 693.54,874.672 L 694.591,874.84 L 695.645,875.017 L 696.703,875.204 L 697.761,875.403 L 698.823,875.608 L 699.887,875.823 L 700.953,876.048 L 702.02,876.281 L 703.088,876.524 L 704.159,876.775 L 705.229,877.033 L 706.303,877.3 L 707.376,877.576 L 708.449,877.861 L 709.525,878.152 L 710.6,878.452 L 711.675,878.759 L 712.751,879.072 L 713.825,879.393 L 714.9,879.723 L 715.975,880.059 L 717.048,880.401 L 718.12,880.752 L 719.192,881.107 L 720.263,881.469 L 721.332,881.839 L 722.4,882.213 L 723.465,882.593 L 724.531,882.98 L 725.592,883.372 L 726.651,883.769 L 727.709,884.173 L 728.764,884.581 L 729.816,884.995 L 730.865,885.413 L 731.912,885.837 L 732.956,886.265 L 733.995,886.697 L 735.032,887.135 L 736.064,887.575 L 737.093,888.02 L 738.117,888.469 L 739.139,888.921 L 740.155,889.379 L 741.164,889.837 L 742.172,890.301 L 743.173,890.767 L 744.169,891.237 L 745.161,891.709 L 746.148,892.185 L 747.128,892.663 L 748.101,893.143 L 749.071,893.625 L 750.033,894.109 L 750.989,894.596 L 751.94,895.084 L 752.883,895.575 L 753.819,896.067 L 754.748,896.559 L 755.671,897.053 L 756.585,897.549 L 757.493,898.045 L 758.393,898.543 L 759.285,899.041 L 760.169,899.539 L 761.045,900.037 L 761.913,900.537 L 762.772,901.035 L 763.623,901.535 L 764.465,902.033 L 765.299,902.532 L 766.121,903.031 L 766.936,903.528 L 767.74,904.024 L 768.536,904.519 L 769.321,905.013 L 770.096,905.507 L 770.861,905.997 L 771.616,906.488 L 772.36,906.977 L 773.093,907.463 L 773.816,907.948 L 774.528,908.431 L 775.227,908.911 L 775.916,909.389 L 776.595,909.864 L 777.26,910.336 L 777.912,910.805 L 778.555,911.272 L 779.185,911.736 L 779.803,912.195 L 780.407,912.649 L 780.997,913.103 L 781.576,913.552 L 782.141,913.996 L 782.693,914.437 L 783.232,914.873 L 783.757,915.305 L 784.271,915.733 L 784.767,916.155 L 785.249,916.572 L 785.717,916.984 L 786.172,917.392 L 786.612,917.793 L 787.036,918.189 L 787.445,918.579 L 787.84,918.964 L 788.219,919.341 L 788.581,919.713 L 788.929,920.079 L 789.26,920.437 L 789.575,920.788 L 789.873,921.133 L 790.156,921.469 L 790.42,921.799 L 790.673,922.127 Z "/>
			</g>
		</g>
		<text id="dp_text009" transform="matrix(1,0,0,1,586.762,873.206)" xml:space="preserve" fill="#0916ca" font-family="Arial" font-size="15" font-weight="700" x="0" y="0">v</text>
		<text id="dp_text010" transform="matrix(1,0,0,1,586.762,873.206)" xml:space="preserve" fill="#0916ca" font-family="Times New Roman" font-size="15" font-weight="400" x="8.46" y="0"> </text>
		<text id="dp_text011" transform="matrix(1,0,0,1,653.132,950.583)" xml:space="preserve" fill="#ca0808" font-family="Arial" font-size="15" font-weight="700" x="0" y="0">r </text>
		<text id="dp_text012" transform="matrix(1,0,0,1,696.55,871.577)" xml:space="preserve" fill="#ca0808" font-family="Arial" font-size="14" font-weight="400" font-style="italic" x="0" y="0">d</text>
		<text id="dp_text013" transform="matrix(1,0,0,1,696.55,871.577)" xml:space="preserve" fill="#ca0808" font-family="Arial" font-size="14" font-weight="700" x="7.69467" y="0">r</text>
		<text id="dp_text014" transform="matrix(1,0,0,1,696.55,871.577)" xml:space="preserve" fill="#ca0808" font-family="Arial" font-size="14" font-weight="700" x="13.0707" y="0"> </text>
		<path id="dp_path028" fill="none" fill-rule="evenodd" stroke="#ca0808" stroke-width="1.33333" d="M 580.048,1010.21 L 713.583,877.428"/>
		<g id="dp_group029">
			<g id="dp_group030">
				<path id="dp_path031" fill="#ca0808" fill-rule="evenodd" d="M 648.916,940.792 L 649.856,941.737 L 651.737,943.628 L 654.113,936.563 L 647.036,938.901 Z "/>
				<path id="dp_path032" fill="#ca0808" d="M 580.519,1010.69 L 649.857,941.739 L 648.916,940.792 L 579.577,1009.74 Z "/>
			</g>
		</g>
		<text id="dp_text015" transform="matrix(1,0,0,1,706.325,893.246)" xml:space="preserve" fill="#fc6d00" font-family="Arial" font-size="14" font-weight="400" font-style="italic" x="0" y="0">dr</text>
		<text id="dp_text016" transform="matrix(1,0,0,1,706.325,893.246)" xml:space="preserve" fill="#fc6d00" font-family="Arial" font-size="14" font-weight="400" font-style="italic" x="12.2973" y="0"> </text>
		<path id="dp_path035" fill="none" fill-rule="evenodd" stroke="#fc6d00" stroke-width="1" d="M 700.863,890.092 L 713.296,877.731"/>
		<g id="dp_group036">
			<path id="dp_path037" fill="#fc6d00" fill-rule="evenodd" d="M 689.261,894.251 C 689.681,894.241 690.107,894.099 690.531,893.821 C 690.944,893.556 691.337,893.201 691.712,892.753 C 692.475,891.817 693.067,890.743 693.487,889.531 C 693.691,888.932 693.836,888.352 693.923,887.789 C 693.995,887.228 693.992,886.721 693.915,886.272 C 693.845,885.821 693.695,885.461 693.464,885.192 C 693.223,884.927 692.893,884.795 692.475,884.795 C 692.065,884.795 691.653,884.927 691.24,885.192 C 690.825,885.461 690.427,885.821 690.043,886.272 C 689.259,887.221 688.657,888.307 688.243,889.531 C 687.831,890.743 687.696,891.817 687.841,892.753 C 687.919,893.201 688.076,893.556 688.308,893.821 C 688.537,894.099 688.853,894.241 689.261,894.251 Z M 692.151,889.544 L 691.868,890.372 C 691.505,891.44 691.117,892.291 690.707,892.923 C 690.275,893.579 689.831,893.909 689.373,893.919 C 688.94,893.909 688.732,893.579 688.749,892.923 C 688.747,892.291 688.925,891.44 689.288,890.372 L 689.571,889.544 Z M 689.749,889.017 L 690.089,888.017 C 690.349,887.252 690.677,886.587 691.075,886.024 C 691.277,885.749 691.487,885.528 691.705,885.363 C 691.92,885.205 692.139,885.125 692.361,885.125 C 692.603,885.125 692.776,885.205 692.884,885.363 C 692.989,885.528 693.049,885.749 693.065,886.024 C 693.061,886.587 692.929,887.252 692.669,888.017 L 692.328,889.017 Z "/>
			<text id="dp_text017" transform="matrix(1,0,0,1,675.573,893.789)" xml:space="preserve" fill="#fc6d00" font-family="Arial" font-size="14" font-weight="400" font-style="italic" x="0" y="0">rd </text>
		</g>
		<g id="dp_group039">
			<g id="dp_group040">
				<path id="dp_path041" fill="#fc6d00" fill-rule="evenodd" d="M 709.307,882.401 L 708.601,881.692 L 707.191,880.273 L 705.408,885.572 L 710.716,883.82 Z "/>
				<path id="dp_path042" fill="#fc6d00" d="M 709.305,882.401 L 713.648,878.085 L 712.944,877.376 L 708.601,881.692 Z "/>
			</g>
		</g>
		<g id="dp_group043">
			<g id="dp_group044">
				<path id="dp_path045" fill="#fc6d00" fill-rule="evenodd" d="M 602.801,811.615 L 603.624,810.565 L 605.269,808.467 L 597.967,806.977 L 601.157,813.713 Z "/>
				<path id="dp_path046" fill="#fc6d00" d="M 681.404,871.527 L 603.624,810.564 L 602.803,811.615 L 680.583,872.577 Z "/>
			</g>
		</g>
		<g id="dp_group047">
			<g id="dp_group048">
				<path id="dp_path049" fill="black" fill-rule="evenodd" d="M 706.083,836.28 L 708.225,837.867 L 712.512,841.039 L 715.087,826.356 L 701.796,833.107 Z "/>
				<path id="dp_path050" fill="black" d="M 682.356,872.816 L 708.227,837.867 L 706.083,836.28 L 680.212,871.229 Z "/>
			</g>
		</g>
		<g id="dp_group051">
			<g id="dp_group052">
				<path id="dp_path053" fill="#ca0808" fill-rule="evenodd" d="M 637.28,931.588 L 638.353,932.38 L 639.707,935.036 L 640.589,928.229 L 634.344,931.076 Z "/>
				<path id="dp_path054" fill="#ca0808" d="M 580.583,1010.61 L 638.353,932.38 L 637.281,931.588 L 579.511,1009.82 Z "/>
			</g>
		</g>
		<path id="dp_path055" fill="none" fill-rule="evenodd" stroke="#fc6d00" stroke-width="1.33333" d="M 598.667,807.657 L 607.004,814.061 L 600.599,822.399 L 592.261,815.995 Z "/>
		<g id="dp_group056">
			<g id="dp_group057">
				<path id="dp_path058" fill="#fc6d00" fill-rule="evenodd" d="M 568.999,848.064 L 567.929,847.267 L 565.792,845.673 L 564.481,853.012 L 571.137,849.657 Z "/>
				<path id="dp_path059" fill="#fc6d00" d="M 598.087,806.789 L 567.929,847.267 L 568.999,848.064 L 599.156,807.587 Z "/>
			</g>
		</g>
		<g id="dp_group060">
			<text id="dp_text018" transform="matrix(1.00164,0,0,1,616.295,816.289)" xml:space="preserve" fill="#fc6d00" font-family="Arial" font-size="17" font-weight="400" font-style="italic" x="0" y="0">r </text>
			<path id="dp_path062" fill="#fc6d00" fill-rule="evenodd" d="M 633.94,812.924 C 634.196,812.173 634.307,811.529 634.269,810.995 C 634.223,810.452 634.091,810.02 633.871,809.697 C 633.667,809.36 633.427,809.117 633.152,808.969 C 632.884,808.817 632.647,808.741 632.44,808.741 C 632.288,808.741 632.192,808.789 632.147,808.885 C 632.156,808.965 632.316,809.253 632.629,809.749 C 632.745,810.003 632.808,810.36 632.816,810.825 C 632.816,811.068 632.781,811.332 632.719,811.619 C 632.657,811.919 632.56,812.261 632.429,812.644 C 632.341,812.911 632.227,813.203 632.087,813.525 C 631.928,813.864 631.733,814.195 631.509,814.516 C 631.279,814.837 631.024,815.097 630.744,815.293 C 630.445,815.515 630.119,815.625 629.769,815.625 C 629.405,815.625 629.139,815.499 628.967,815.244 C 628.769,815.012 628.737,814.703 628.869,814.313 C 629.019,813.905 629.244,813.488 629.545,813.06 C 629.824,812.631 630.051,812.173 630.228,811.687 C 630.476,810.995 630.271,810.641 629.609,810.629 C 628.94,810.641 628.495,810.995 628.269,811.687 C 628.116,812.173 628.043,812.631 628.051,813.06 C 628.031,813.488 627.957,813.905 627.832,814.313 C 627.697,814.703 627.464,815.012 627.128,815.244 C 626.784,815.499 626.427,815.625 626.056,815.625 C 625.723,815.625 625.493,815.515 625.361,815.293 C 625.205,815.097 625.123,814.837 625.112,814.516 C 625.107,814.195 625.139,813.864 625.208,813.525 C 625.265,813.203 625.34,812.911 625.431,812.644 C 625.561,812.261 625.708,811.919 625.873,811.619 C 626.005,811.332 626.148,811.068 626.299,810.825 C 626.611,810.36 626.907,810.003 627.188,809.749 C 627.837,809.253 628.195,808.965 628.261,808.885 C 628.283,808.789 628.219,808.741 628.068,808.741 C 627.621,808.741 626.935,809.06 626.009,809.697 C 625.581,810.019 625.161,810.449 624.748,810.991 C 624.327,811.528 623.987,812.169 623.731,812.92 C 623.417,813.843 623.435,814.635 623.785,815.288 C 624.104,815.971 624.736,816.321 625.684,816.345 C 626.171,816.333 626.628,816.196 627.055,815.933 C 627.471,815.68 627.841,815.335 628.164,814.897 L 628.164,814.897 C 628.2,815.335 628.347,815.68 628.603,815.933 C 628.851,816.196 629.2,816.333 629.652,816.345 C 630.625,816.321 631.512,815.971 632.309,815.288 C 633.072,814.636 633.615,813.848 633.94,812.924 Z "/>
		</g>
		<text id="dp_text019" transform="matrix(1,0,0,1,546.173,830.341)" xml:space="preserve" fill="#fc6d00" font-family="Arial" font-size="15" font-weight="400" font-style="italic" x="0" y="0">dr</text>
		<text id="dp_text020" transform="matrix(1,0,0,1,546.173,830.341)" xml:space="preserve" fill="#fc6d00" font-family="Arial" font-size="15" font-weight="400" font-style="italic" x="13.52" y="0">/</text>
		<text id="dp_text021" transform="matrix(1,0,0,1,546.173,830.341)" xml:space="preserve" fill="#fc6d00" font-family="Arial" font-size="15" font-weight="400" font-style="italic" x="17.7293" y="0">dt</text>
		<text id="dp_text022" transform="matrix(1,0,0,1,546.173,830.341)" xml:space="preserve" fill="#fc6d00" font-family="Arial" font-size="15" font-weight="400" font-style="italic" x="30.4" y="0"> </text>
		<g id="dp_group067">
			<g id="dp_group068">
				<path id="dp_path069" fill="#0916ca" fill-rule="evenodd" d="M 678.352,870.965 L 678.363,870.904 L 678.376,870.843 L 678.391,870.781 L 678.407,870.721 L 678.425,870.661 L 678.445,870.601 L 678.468,870.543 L 678.492,870.484 L 678.517,870.425 L 678.545,870.368 L 678.575,870.312 L 678.605,870.255 L 678.639,870.2 L 678.672,870.145 L 678.708,870.091 L 678.747,870.037 L 678.785,869.984 L 678.827,869.932 L 678.868,869.881 L 678.912,869.831 L 678.957,869.781 L 679.004,869.733 L 679.053,869.685 L 679.103,869.639 L 679.153,869.593 L 679.207,869.548 L 679.261,869.505 L 679.316,869.463 L 679.373,869.421 L 679.432,869.381 L 679.491,869.341 L 679.552,869.304 L 679.615,869.267 L 679.677,869.231 L 679.743,869.196 L 679.808,869.164 L 679.875,869.132 L 679.944,869.101 L 680.013,869.072 L 680.084,869.044 L 680.156,869.019 L 680.228,868.993 L 680.303,868.971 L 680.377,868.948 L 680.453,868.928 L 680.531,868.909 L 680.609,868.892 L 680.688,868.877 L 680.768,868.863 L 680.849,868.851 L 680.931,868.84 L 681.013,868.832 L 681.097,868.825 L 681.181,868.819 L 681.268,868.816 L 681.353,868.815 L 681.441,868.815 L 681.528,868.817 L 681.617,868.821 L 681.707,868.827 L 681.797,868.835 L 681.888,868.845 L 681.98,868.857 L 682.072,868.872 L 682.164,868.888 L 682.255,868.905 L 682.343,868.924 L 682.431,868.945 L 682.517,868.969 L 682.603,868.993 L 682.687,869.02 L 682.769,869.048 L 682.851,869.077 L 682.931,869.108 L 683.009,869.141 L 683.085,869.175 L 683.161,869.211 L 683.236,869.248 L 683.308,869.288 L 683.38,869.328 L 683.449,869.369 L 683.517,869.413 L 683.584,869.459 L 683.649,869.504 L 683.713,869.552 L 683.775,869.601 L 683.836,869.652 L 683.895,869.704 L 683.952,869.757 L 684.008,869.812 L 684.063,869.867 L 684.115,869.924 L 684.165,869.983 L 684.215,870.043 L 684.263,870.104 L 684.308,870.167 L 684.353,870.229 L 684.396,870.293 L 684.436,870.36 L 684.476,870.427 L 684.513,870.495 L 684.548,870.564 L 684.583,870.633 L 684.615,870.705 L 684.645,870.777 L 684.673,870.851 L 684.7,870.925 L 684.725,871.001 L 684.748,871.077 L 684.769,871.155 L 684.789,871.235 L 684.807,871.313 L 684.823,871.393 L 684.836,871.475 L 684.848,871.557 L 684.857,871.64 L 684.867,871.724 L 684.872,871.809 L 684.876,871.895 L 684.879,871.981 L 684.879,872.068 L 684.877,872.156 L 684.873,872.245 L 684.867,872.335 L 684.859,872.424 L 684.849,872.515 L 684.837,872.607 L 684.824,872.699 L 684.807,872.791 L 684.789,872.881 L 684.769,872.971 L 684.749,873.059 L 684.725,873.145 L 684.701,873.231 L 684.675,873.315 L 684.647,873.397 L 684.617,873.479 L 684.587,873.559 L 684.553,873.636 L 684.519,873.713 L 684.483,873.789 L 684.445,873.863 L 684.407,873.936 L 684.367,874.007 L 684.324,874.076 L 684.28,874.145 L 684.236,874.212 L 684.189,874.277 L 684.141,874.34 L 684.092,874.403 L 684.043,874.463 L 683.991,874.523 L 683.937,874.58 L 683.883,874.635 L 683.827,874.689 L 683.769,874.741 L 683.711,874.793 L 683.652,874.843 L 683.591,874.889 L 683.528,874.936 L 683.465,874.98 L 683.4,875.023 L 683.335,875.064 L 683.268,875.103 L 683.2,875.14 L 683.131,875.176 L 683.06,875.209 L 682.989,875.241 L 682.916,875.272 L 682.843,875.301 L 682.768,875.328 L 682.693,875.353 L 682.616,875.376 L 682.539,875.397 L 682.46,875.416 L 682.381,875.435 L 682.3,875.449 L 682.219,875.464 L 682.137,875.476 L 682.053,875.485 L 681.969,875.493 L 681.885,875.5 L 681.8,875.504 L 681.713,875.507 L 681.627,875.507 L 681.539,875.504 L 681.449,875.5 L 681.36,875.495 L 681.269,875.487 L 681.179,875.477 L 681.088,875.464 L 680.996,875.451 L 680.904,875.435 L 680.813,875.417 L 680.724,875.397 L 680.636,875.376 L 680.549,875.353 L 680.464,875.329 L 680.38,875.303 L 680.297,875.276 L 680.216,875.247 L 680.136,875.216 L 680.057,875.184 L 679.98,875.151 L 679.904,875.116 L 679.829,875.08 L 679.757,875.043 L 679.685,875.004 L 679.616,874.964 L 679.547,874.923 L 679.48,874.88 L 679.413,874.837 L 679.351,874.792 L 679.287,874.747 L 679.227,874.7 L 679.167,874.652 L 679.108,874.604 L 679.052,874.555 L 678.996,874.504 L 678.943,874.452 L 678.891,874.4 L 678.841,874.347 L 678.792,874.293 L 678.745,874.239 L 678.699,874.183 L 678.655,874.127 L 678.613,874.069 L 678.572,874.012 L 678.533,873.955 L 678.496,873.895 L 678.46,873.836 L 678.425,873.777 L 678.393,873.716 L 678.363,873.656 L 678.333,873.595 L 678.307,873.533 L 678.281,873.472 L 678.257,873.411 L 678.235,873.348 L 678.215,873.285 L 678.196,873.223 L 678.179,873.16 L 678.164,873.097 L 678.151,873.035 L 678.14,872.971 L 678.129,872.908 L 678.123,872.845 L 678.116,872.781 L 678.112,872.719 L 678.109,872.656 L 678.109,872.592 L 678.111,872.529 L 678.115,872.467 L 678.12,872.405 L 678.128,872.343 L 678.136,872.281 Z "/>
				<path id="dp_path070" fill="#0916ca" fill-rule="evenodd" d="M 570.952,854.747 L 571.168,853.431 L 571.599,850.799 L 564.481,853.012 L 570.521,857.379 Z "/>
				<path id="dp_path071" fill="#0916ca" d="M 678.352,870.969 L 571.168,853.431 L 570.952,854.745 L 678.136,872.284 Z "/>
			</g>
		</g>
		<path id="dp_path072" fill="none" fill-rule="evenodd" stroke="#ca0808" stroke-width="1.33333" d="M 713.583,877.811 L 681.284,872.805"/>
		<g id="dp_group073">
			<g id="dp_group074">
				<path id="dp_path075" fill="#ca0808" fill-rule="evenodd" d="M 701.589,876.627 L 701.795,875.309 L 702.203,872.675 L 695.104,874.948 L 701.181,879.263 Z "/>
				<path id="dp_path076" fill="#ca0808" d="M 713.685,877.152 L 701.795,875.309 L 701.589,876.627 L 713.48,878.469 Z "/>
			</g>
		</g>
		<path id="dp_path077" fill="none" fill-rule="evenodd" stroke="#fc6d00" stroke-width="1" d="M 700.803,890.092 L 681.283,872.024"/>
		<g id="dp_group078">
			<g id="dp_group079">
				<path id="dp_path080" fill="#fc6d00" fill-rule="evenodd" d="M 692.868,883.428 L 693.548,882.695 L 694.905,881.227 L 689.537,879.665 L 691.509,884.896 Z "/>
				<path id="dp_path081" fill="#fc6d00" d="M 701.143,889.725 L 693.548,882.695 L 692.868,883.428 L 700.463,890.459 Z "/>
			</g>
		</g>
		<path id="dp_path082" fill="none" fill-rule="evenodd" stroke="#ca0808" stroke-width="1.33333" d="M 580.047,1010.21 L 681.519,872.805"/>
	</g>
</svg>